<svg width="272" height="102" viewBox="0 0 272 102" fill="none" xmlns="http://www.w3.org/2000/svg">
<path d="M132.305 77.3883H122.065V26.1683H132.665L155.035 59.9983V26.1683H165.275V77.3883H154.665L132.305 43.5583V77.3883Z" fill="white"/>
<path d="M168.735 58.4883C168.735 47.7383 176.455 38.7183 188.575 38.7183C200.695 38.7183 208.415 47.7383 208.415 58.4883C208.415 69.2383 200.695 78.2583 188.575 78.2583C176.455 78.2583 168.735 69.2383 168.735 58.4883ZM188.575 69.2383C193.985 69.2383 198.165 65.2683 198.165 58.4883C198.165 51.7083 193.985 47.7383 188.575 47.7383C183.165 47.7383 178.975 51.7083 178.975 58.4883C178.975 65.2683 183.165 69.2383 188.575 69.2383Z" fill="white"/>
<path d="M232.505 48.8883C232.505 48.8883 231.425 48.6683 230.485 48.6683C224.495 48.6683 221.395 51.6283 221.395 58.5483V77.3783H211.155V39.5783H220.605V44.4883C221.975 42.2483 224.865 39.2183 231.285 39.2183C231.645 39.2183 232.515 39.2883 232.515 39.2883V48.8883H232.505Z" fill="white"/>
<path d="M261.295 23.2783H271.545V77.3883H262.095V72.7683C259.715 76.2283 255.455 78.2483 250.115 78.2483C239.145 78.2483 232.725 69.4483 232.725 58.4783C232.725 47.5083 239.145 38.7083 250.115 38.7083C255.455 38.7083 259.345 41.0183 261.295 43.6183V23.2783ZM252.275 47.7383C246.575 47.7383 242.965 52.3583 242.965 58.4883C242.965 64.6183 246.575 69.2383 252.275 69.2383C257.975 69.2383 261.585 64.6183 261.585 58.4883C261.585 52.3583 257.975 47.7383 252.275 47.7383Z" fill="white"/>
<path d="M176.775 30.5683C176.775 29.3683 173.515 30.3083 173.515 27.9183C173.515 26.8883 174.335 26.0383 175.745 26.0383C177.175 26.0383 177.975 26.9783 178.015 28.0783H176.785C176.755 27.5483 176.385 27.1583 175.725 27.1583C175.135 27.1583 174.755 27.4483 174.755 27.8483C174.755 29.0683 178.055 28.1083 178.055 30.5283C178.055 31.6183 177.095 32.3883 175.645 32.3883C173.955 32.3883 173.325 31.3383 173.295 30.3383H174.535C174.565 30.8383 174.925 31.2783 175.725 31.2783C176.365 31.2683 176.775 31.0083 176.775 30.5683Z" fill="white"/>
<path d="M183.375 27.3483H181.705V32.2683H180.455V27.3483H178.785V26.1683H183.385V27.3483H183.375Z" fill="white"/>
<path d="M186.965 32.3983C185.115 32.3983 183.795 31.0483 183.795 29.2183C183.795 27.3883 185.115 26.0383 186.965 26.0383C188.815 26.0383 190.135 27.3883 190.135 29.2183C190.135 31.0483 188.805 32.3983 186.965 32.3983ZM186.965 27.2283C185.885 27.2283 185.115 28.0083 185.115 29.2083C185.115 30.4083 185.875 31.1883 186.965 31.1883C188.045 31.1883 188.815 30.4083 188.815 29.2083C188.805 28.0183 188.045 27.2283 186.965 27.2283Z" fill="white"/>
<path d="M195.035 32.2683L193.895 29.9583H192.695V32.2683H191.445V26.1683H194.215C195.545 26.1683 196.255 26.9583 196.255 28.0783C196.255 28.8883 195.885 29.5283 195.175 29.8183L196.505 32.2683H195.035ZM194.195 27.3183H192.685V28.8083H194.195C194.715 28.8083 194.975 28.5283 194.975 28.0783C194.975 27.6283 194.725 27.3183 194.195 27.3183Z" fill="white"/>
<path d="M200.305 26.0383C201.825 26.0383 203.025 26.9383 203.265 28.4283H201.925C201.745 27.6683 201.125 27.2383 200.305 27.2383C199.185 27.2383 198.565 28.0083 198.565 29.2183C198.565 30.4183 199.195 31.1983 200.305 31.1983C201.125 31.1983 201.735 30.7683 201.925 30.0083H203.265C203.035 31.4983 201.835 32.3983 200.305 32.3983C198.555 32.3983 197.235 31.1383 197.235 29.2283C197.235 27.3183 198.545 26.0383 200.305 26.0383Z" fill="white"/>
<path d="M208.885 32.2683H204.495V26.1683H208.885V27.3183H205.745V28.5983H208.755V29.7483H205.745V31.1183H208.885V32.2683Z" fill="white"/>
<path d="M211.475 32.2683H210.255V26.1683H211.515L214.175 30.1983V26.1683H215.395V32.2683H214.135L211.475 28.2383V32.2683Z" fill="white"/>
<path d="M220.985 27.3483H219.315V32.2683H218.065V27.3483H216.395V26.1683H220.995V27.3483H220.985Z" fill="white"/>
<path d="M226.365 32.2683H221.975V26.1683H226.365V27.3183H223.225V28.5983H226.235V29.7483H223.225V31.1183H226.365V32.2683Z" fill="white"/>
<path d="M231.335 32.2683L230.195 29.9583H228.995V32.2683H227.745V26.1683H230.515C231.845 26.1683 232.555 26.9583 232.555 28.0783C232.555 28.8883 232.185 29.5283 231.475 29.8183L232.805 32.2683H231.335ZM230.495 27.3183H228.985V28.8083H230.495C231.015 28.8083 231.275 28.5283 231.275 28.0783C231.285 27.6283 231.025 27.3183 230.495 27.3183Z" fill="white"/>
<path d="M50.7749 43.5184L23.3349 16.0784L30.5949 8.82837L50.7749 29.0084L70.9649 8.82837L78.2149 16.0784L50.7749 43.5184Z" fill="white"/>
<path d="M43.5211 7.2548L50.7759 14.5096L58.0308 7.2548L50.7759 -4.95874e-05L43.5211 7.2548Z" fill="white"/>
<path d="M58.0249 50.7684L85.4649 78.2084L92.7249 70.9484L72.5349 50.7684L92.7249 30.5884L85.4649 23.3284L58.0249 50.7684Z" fill="white"/>
<path d="M101.549 50.7685L94.2937 43.5137L87.0389 50.7685L94.2937 58.0234L101.549 50.7685Z" fill="white"/>
<path d="M43.5249 50.7684L16.0849 23.3284L8.83493 30.5884L29.0149 50.7684L8.83493 70.9484L16.0849 78.2084L43.5249 50.7684Z" fill="white"/>
<path d="M50.7749 58.0184L78.2149 85.4584L70.9649 92.7084L50.7749 72.5284L30.5949 92.7084L23.3349 85.4584L50.7749 58.0184Z" fill="white"/>
<path d="M58.028 94.2859L50.7731 87.031L43.5183 94.2858L50.7731 101.541L58.028 94.2859Z" fill="white"/>
<path d="M6.39824e-06 50.7649L7.25485 58.0198L14.5097 50.7649L7.25485 43.5101L6.39824e-06 50.7649Z" fill="white"/>
</svg>
