<?xml version="1.0" encoding="utf-8"?>
<!-- Generator: Adobe Illustrator 27.6.1, SVG Export Plug-In . SVG Version: 6.00 Build 0)  -->
<svg version="1.1" xmlns="http://www.w3.org/2000/svg" xmlns:xlink="http://www.w3.org/1999/xlink" x="0px" y="0px"
	 viewBox="0 0 271.53 101.54" style="enable-background:new 0 0 271.53 101.54;" xml:space="preserve">
<style type="text/css">
	.st0{display:none;}
	.st1{display:inline;}
	.st2{font-family:'Eina01-Bold';}
	.st3{font-size:72.1416px;}
	.st4{letter-spacing:-4;}
	.st5{letter-spacing:-2;}
	.st6{font-size:8.5845px;}
</style>
<g id="Not_Outlinet" class="st0">
	<text transform="matrix(1 0 0 1 116.6441 77.3906)" class="st1"><tspan x="0" y="0" class="st2 st3 st4">No</tspan><tspan x="89.82" y="0" class="st2 st3 st5">r</tspan><tspan x="113.77" y="0" class="st2 st3">d</tspan></text>
	<text transform="matrix(1 0 0 1 172.9688 32.2683)" class="st1"><tspan x="0" y="0" class="st2 st6">S</tspan><tspan x="5.75" y="0" class="st2 st6">T</tspan><tspan x="10.46" y="0" class="st2 st6">ORCENTE</tspan><tspan x="54.12" y="0" class="st2 st6">R</tspan></text>
</g>
<g id="Outlinet">
	<g>
		<path d="M132.3,77.39h-10.24V26.17h10.6L155.03,60V26.17h10.24v51.22h-10.61L132.3,43.56V77.39z"/>
		<path d="M168.73,58.49c0-10.75,7.72-19.77,19.84-19.77s19.84,9.02,19.84,19.77c0,10.75-7.72,19.77-19.84,19.77
			S168.73,69.24,168.73,58.49z M188.57,69.24c5.41,0,9.59-3.97,9.59-10.75s-4.18-10.75-9.59-10.75c-5.41,0-9.6,3.97-9.6,10.75
			S183.16,69.24,188.57,69.24z"/>
		<path d="M232.5,48.89c0,0-1.08-0.22-2.02-0.22c-5.99,0-9.09,2.96-9.09,9.88v18.83h-10.24v-37.8h9.45v4.91
			c1.37-2.24,4.26-5.27,10.68-5.27c0.36,0,1.23,0.07,1.23,0.07V48.89z"/>
		<path d="M261.29,23.28h10.25v54.11h-9.45v-4.62c-2.38,3.46-6.64,5.48-11.98,5.48c-10.97,0-17.39-8.8-17.39-19.77
			c0-10.97,6.42-19.77,17.39-19.77c5.34,0,9.23,2.31,11.18,4.91V23.28z M252.27,47.74c-5.7,0-9.31,4.62-9.31,10.75
			s3.61,10.75,9.31,10.75c5.7,0,9.31-4.62,9.31-10.75S257.97,47.74,252.27,47.74z"/>
	</g>
	<g>
		<path d="M176.77,30.57c0-1.2-3.26-0.26-3.26-2.65c0-1.03,0.82-1.88,2.23-1.88c1.43,0,2.23,0.94,2.27,2.04h-1.23
			c-0.03-0.53-0.4-0.92-1.06-0.92c-0.59,0-0.97,0.29-0.97,0.69c0,1.22,3.3,0.26,3.3,2.68c0,1.09-0.96,1.86-2.41,1.86
			c-1.69,0-2.32-1.05-2.35-2.05h1.24c0.03,0.5,0.39,0.94,1.19,0.94C176.36,31.27,176.77,31.01,176.77,30.57z"/>
		<path d="M183.37,27.35h-1.67v4.92h-1.25v-4.92h-1.67v-1.18h4.6V27.35z"/>
		<path d="M186.96,32.4c-1.85,0-3.17-1.35-3.17-3.18s1.32-3.18,3.17-3.18c1.85,0,3.17,1.35,3.17,3.18S188.8,32.4,186.96,32.4z
			 M186.96,27.23c-1.08,0-1.85,0.78-1.85,1.98c0,1.2,0.76,1.98,1.85,1.98c1.08,0,1.85-0.78,1.85-1.98
			C188.8,28.02,188.04,27.23,186.96,27.23z"/>
		<path d="M195.03,32.27l-1.14-2.31h-1.2v2.31h-1.25v-6.1h2.77c1.33,0,2.04,0.79,2.04,1.91c0,0.81-0.37,1.45-1.08,1.74l1.33,2.45
			H195.03z M194.19,27.32h-1.51v1.49h1.51c0.52,0,0.78-0.28,0.78-0.73C194.97,27.63,194.72,27.32,194.19,27.32z"/>
		<path d="M200.3,26.04c1.52,0,2.72,0.9,2.96,2.39h-1.34c-0.18-0.76-0.8-1.19-1.62-1.19c-1.12,0-1.74,0.77-1.74,1.98
			c0,1.2,0.63,1.98,1.74,1.98c0.82,0,1.43-0.43,1.62-1.19h1.34c-0.23,1.49-1.43,2.39-2.96,2.39c-1.75,0-3.07-1.26-3.07-3.17
			S198.54,26.04,200.3,26.04z"/>
		<path d="M208.88,32.27h-4.39v-6.1h4.39v1.15h-3.14v1.28h3.01v1.15h-3.01v1.37h3.14V32.27z"/>
		<path d="M211.47,32.27h-1.22v-6.1h1.26l2.66,4.03v-4.03h1.22v6.1h-1.26l-2.66-4.03V32.27z"/>
		<path d="M220.98,27.35h-1.67v4.92h-1.25v-4.92h-1.67v-1.18h4.6V27.35z"/>
		<path d="M226.36,32.27h-4.39v-6.1h4.39v1.15h-3.14v1.28h3.01v1.15h-3.01v1.37h3.14V32.27z"/>
		<path d="M231.33,32.27l-1.14-2.31h-1.2v2.31h-1.25v-6.1h2.77c1.33,0,2.04,0.79,2.04,1.91c0,0.81-0.37,1.45-1.08,1.74l1.33,2.45
			H231.33z M230.49,27.32h-1.51v1.49h1.51c0.52,0,0.78-0.28,0.78-0.73C231.28,27.63,231.02,27.32,230.49,27.32z"/>
	</g>
</g>
<g id="Bomærke">
	<g>
		<polygon points="50.77,43.52 23.33,16.08 30.59,8.83 50.77,29.01 70.96,8.83 78.21,16.08 		"/>
		<rect x="45.64" y="2.12" transform="matrix(-0.7071 -0.7071 0.7071 -0.7071 81.544 48.2824)" width="10.26" height="10.26"/>
		<g>
			<polygon points="58.02,50.77 85.46,78.21 92.72,70.95 72.53,50.77 92.72,30.59 85.46,23.33 			"/>
			<rect x="89.16" y="45.64" transform="matrix(0.7071 0.7071 -0.7071 0.7071 63.5158 -51.8018)" width="10.26" height="10.26"/>
		</g>
		<polygon points="43.52,50.77 16.08,23.33 8.83,30.59 29.01,50.77 8.83,70.95 16.08,78.21 		"/>
		<polygon points="50.77,58.02 78.21,85.46 70.96,92.71 50.77,72.53 30.59,92.71 23.33,85.46 		"/>
		<rect x="45.64" y="89.16" transform="matrix(0.7071 0.7071 -0.7071 0.7071 81.5412 -8.2845)" width="10.26" height="10.26"/>
		<rect x="2.13" y="45.64" transform="matrix(-0.7071 -0.7071 0.7071 -0.7071 -23.516 91.7996)" width="10.26" height="10.26"/>
	</g>
</g>
</svg>
